<mxfile host="app.diagrams.net" agent="Mozilla/5.0 (Windows NT 10.0; Win64; x64) AppleWebKit/537.36 (KHTML, like Gecko) Chrome/136.0.0.0 Safari/537.36" version="27.0.3">
  <diagram name="Page-1" id="5f0bae14-7c28-e335-631c-24af17079c00">
    <mxGraphModel dx="1042" dy="527" grid="1" gridSize="10" guides="1" tooltips="1" connect="1" arrows="1" fold="1" page="1" pageScale="1" pageWidth="1100" pageHeight="850" background="none" math="0" shadow="0">
      <root>
        <mxCell id="0" />
        <mxCell id="1" parent="0" />
        <mxCell id="4mEzJPV0xNtc1X_mmVSn-1" value="User" style="swimlane;whiteSpace=wrap;html=1;fillColor=#e3c800;fontColor=#000000;strokeColor=#B09500;fillStyle=solid;rounded=0;labelBackgroundColor=none;swimlaneFillColor=light-dark(#33FFFF,#662B2B);" vertex="1" parent="1">
          <mxGeometry x="50" y="230" width="60" height="40" as="geometry" />
        </mxCell>
        <mxCell id="4mEzJPV0xNtc1X_mmVSn-3" value="UI" style="swimlane;whiteSpace=wrap;html=1;fillColor=#e3c800;fontColor=#000000;strokeColor=#B09500;fillStyle=solid;rounded=0;labelBackgroundColor=none;swimlaneFillColor=light-dark(#33FFFF,#662B2B);" vertex="1" parent="1">
          <mxGeometry x="360" y="230" width="40" height="40" as="geometry" />
        </mxCell>
        <mxCell id="4mEzJPV0xNtc1X_mmVSn-4" value="Report Controller" style="swimlane;whiteSpace=wrap;html=1;fillColor=#e3c800;fontColor=#000000;strokeColor=#B09500;fillStyle=solid;rounded=0;labelBackgroundColor=none;swimlaneFillColor=light-dark(#33FFFF,#662B2B);" vertex="1" parent="1">
          <mxGeometry x="560" y="230" width="120" height="40" as="geometry" />
        </mxCell>
        <mxCell id="4mEzJPV0xNtc1X_mmVSn-5" value="Analytics Engine" style="swimlane;whiteSpace=wrap;html=1;fillColor=#e3c800;fontColor=#000000;strokeColor=#B09500;fillStyle=solid;rounded=0;labelBackgroundColor=none;swimlaneFillColor=light-dark(#33FFFF,#662B2B);startSize=23;" vertex="1" parent="1">
          <mxGeometry x="820" y="220" width="120" height="40" as="geometry" />
        </mxCell>
        <mxCell id="4mEzJPV0xNtc1X_mmVSn-6" value="Budget Repository" style="swimlane;whiteSpace=wrap;html=1;fillColor=#e3c800;fontColor=#000000;strokeColor=#B09500;fillStyle=solid;rounded=0;labelBackgroundColor=none;swimlaneFillColor=light-dark(#33FFFF,#662B2B);" vertex="1" parent="1">
          <mxGeometry x="840" y="360" width="120" height="40" as="geometry" />
        </mxCell>
        <mxCell id="4mEzJPV0xNtc1X_mmVSn-7" value="Expense Repository" style="swimlane;whiteSpace=wrap;html=1;fillColor=#e3c800;fontColor=#000000;strokeColor=#B09500;fillStyle=solid;rounded=0;labelBackgroundColor=none;swimlaneFillColor=light-dark(#33FFFF,#662B2B);" vertex="1" parent="1">
          <mxGeometry x="590" y="400" width="120" height="40" as="geometry" />
        </mxCell>
        <mxCell id="4mEzJPV0xNtc1X_mmVSn-8" value="PDF Generator" style="swimlane;whiteSpace=wrap;html=1;fillColor=#e3c800;fontColor=#000000;strokeColor=#B09500;fillStyle=solid;rounded=0;labelBackgroundColor=none;swimlaneFillColor=light-dark(#33FFFF,#662B2B);" vertex="1" parent="1">
          <mxGeometry x="380" y="385" width="120" height="40" as="geometry" />
        </mxCell>
        <mxCell id="4mEzJPV0xNtc1X_mmVSn-10" value="" style="endArrow=classic;html=1;rounded=0;exitX=1;exitY=0.5;exitDx=0;exitDy=0;entryX=0;entryY=0.5;entryDx=0;entryDy=0;" edge="1" parent="1">
          <mxGeometry width="50" height="50" relative="1" as="geometry">
            <mxPoint x="110" y="245" as="sourcePoint" />
            <mxPoint x="360" y="245" as="targetPoint" />
          </mxGeometry>
        </mxCell>
        <mxCell id="4mEzJPV0xNtc1X_mmVSn-11" value="1: RequestReport(month)" style="text;html=1;align=center;verticalAlign=middle;whiteSpace=wrap;rounded=0;fontSize=11;" vertex="1" parent="1">
          <mxGeometry x="120" y="230" width="230" height="10" as="geometry" />
        </mxCell>
        <mxCell id="4mEzJPV0xNtc1X_mmVSn-12" value="" style="endArrow=classic;html=1;rounded=0;entryX=1;entryY=0.75;entryDx=0;entryDy=0;" edge="1" parent="1" target="4mEzJPV0xNtc1X_mmVSn-1">
          <mxGeometry width="50" height="50" relative="1" as="geometry">
            <mxPoint x="360" y="260" as="sourcePoint" />
            <mxPoint x="370" y="260" as="targetPoint" />
            <Array as="points">
              <mxPoint x="320" y="280" />
              <mxPoint x="150" y="280" />
            </Array>
          </mxGeometry>
        </mxCell>
        <mxCell id="4mEzJPV0xNtc1X_mmVSn-13" value="11: download()" style="text;html=1;align=center;verticalAlign=middle;whiteSpace=wrap;rounded=0;fontSize=11;" vertex="1" parent="1">
          <mxGeometry x="121" y="264" width="230" height="16" as="geometry" />
        </mxCell>
        <mxCell id="4mEzJPV0xNtc1X_mmVSn-14" value="" style="endArrow=classic;html=1;rounded=0;exitX=1;exitY=0.5;exitDx=0;exitDy=0;entryX=0;entryY=0.5;entryDx=0;entryDy=0;" edge="1" parent="1" source="4mEzJPV0xNtc1X_mmVSn-3" target="4mEzJPV0xNtc1X_mmVSn-4">
          <mxGeometry width="50" height="50" relative="1" as="geometry">
            <mxPoint x="400" y="245" as="sourcePoint" />
            <mxPoint x="650" y="245" as="targetPoint" />
          </mxGeometry>
        </mxCell>
        <mxCell id="4mEzJPV0xNtc1X_mmVSn-15" value="2: generate()" style="text;html=1;align=center;verticalAlign=middle;whiteSpace=wrap;rounded=0;fontSize=11;" vertex="1" parent="1">
          <mxGeometry x="360" y="230" width="230" height="10" as="geometry" />
        </mxCell>
        <mxCell id="4mEzJPV0xNtc1X_mmVSn-16" value="" style="endArrow=classic;html=1;rounded=0;exitX=0.5;exitY=1;exitDx=0;exitDy=0;entryX=0.25;entryY=0;entryDx=0;entryDy=0;" edge="1" parent="1">
          <mxGeometry width="50" height="50" relative="1" as="geometry">
            <mxPoint x="600" y="270" as="sourcePoint" />
            <mxPoint x="600" y="400" as="targetPoint" />
          </mxGeometry>
        </mxCell>
        <mxCell id="4mEzJPV0xNtc1X_mmVSn-17" value="3: getExpense()" style="text;html=1;align=center;verticalAlign=middle;whiteSpace=wrap;rounded=0;fontSize=11;rotation=90;" vertex="1" parent="1">
          <mxGeometry x="544" y="319" width="90" height="10" as="geometry" />
        </mxCell>
        <mxCell id="4mEzJPV0xNtc1X_mmVSn-19" value="" style="endArrow=classic;html=1;rounded=0;exitX=1;exitY=0.75;exitDx=0;exitDy=0;entryX=0.25;entryY=0;entryDx=0;entryDy=0;" edge="1" parent="1">
          <mxGeometry width="50" height="50" relative="1" as="geometry">
            <mxPoint x="680" y="260" as="sourcePoint" />
            <mxPoint x="870" y="360" as="targetPoint" />
          </mxGeometry>
        </mxCell>
        <mxCell id="4mEzJPV0xNtc1X_mmVSn-20" value="5: getBudget()" style="text;html=1;align=center;verticalAlign=middle;whiteSpace=wrap;rounded=0;fontSize=11;rotation=30;" vertex="1" parent="1">
          <mxGeometry x="725" y="285" width="100" height="10" as="geometry" />
        </mxCell>
        <mxCell id="4mEzJPV0xNtc1X_mmVSn-22" value="" style="endArrow=classic;html=1;rounded=0;exitX=0;exitY=0.5;exitDx=0;exitDy=0;" edge="1" parent="1" source="4mEzJPV0xNtc1X_mmVSn-6">
          <mxGeometry width="50" height="50" relative="1" as="geometry">
            <mxPoint x="650" y="270" as="sourcePoint" />
            <mxPoint x="670" y="280" as="targetPoint" />
          </mxGeometry>
        </mxCell>
        <mxCell id="4mEzJPV0xNtc1X_mmVSn-23" value="6: BudgetData" style="text;html=1;align=center;verticalAlign=middle;whiteSpace=wrap;rounded=0;fontSize=11;rotation=30;" vertex="1" parent="1">
          <mxGeometry x="695" y="305" width="100" height="10" as="geometry" />
        </mxCell>
        <mxCell id="4mEzJPV0xNtc1X_mmVSn-24" value="" style="endArrow=classic;html=1;rounded=0;exitX=1;exitY=0.5;exitDx=0;exitDy=0;" edge="1" parent="1">
          <mxGeometry width="50" height="50" relative="1" as="geometry">
            <mxPoint x="680" y="240" as="sourcePoint" />
            <mxPoint x="820" y="240" as="targetPoint" />
          </mxGeometry>
        </mxCell>
        <mxCell id="4mEzJPV0xNtc1X_mmVSn-25" value="7: Analyze()" style="text;html=1;align=center;verticalAlign=middle;whiteSpace=wrap;rounded=0;fontSize=11;" vertex="1" parent="1">
          <mxGeometry x="640" y="220" width="230" height="10" as="geometry" />
        </mxCell>
        <mxCell id="4mEzJPV0xNtc1X_mmVSn-26" value="" style="curved=1;endArrow=classic;html=1;rounded=0;exitX=0.972;exitY=-0.28;exitDx=0;exitDy=0;exitPerimeter=0;" edge="1" parent="1" source="4mEzJPV0xNtc1X_mmVSn-25">
          <mxGeometry width="50" height="50" relative="1" as="geometry">
            <mxPoint x="840" y="210" as="sourcePoint" />
            <mxPoint x="620" y="217" as="targetPoint" />
            <Array as="points">
              <mxPoint x="890" y="210" />
              <mxPoint x="760" y="170" />
            </Array>
          </mxGeometry>
        </mxCell>
        <mxCell id="4mEzJPV0xNtc1X_mmVSn-27" value="8: trends" style="text;html=1;align=center;verticalAlign=middle;whiteSpace=wrap;rounded=0;fontSize=11;" vertex="1" parent="1">
          <mxGeometry x="640" y="170" width="230" height="10" as="geometry" />
        </mxCell>
        <mxCell id="4mEzJPV0xNtc1X_mmVSn-28" value="" style="endArrow=classic;html=1;rounded=0;exitX=0;exitY=0.75;exitDx=0;exitDy=0;" edge="1" parent="1" source="4mEzJPV0xNtc1X_mmVSn-4">
          <mxGeometry width="50" height="50" relative="1" as="geometry">
            <mxPoint x="480" y="280" as="sourcePoint" />
            <mxPoint x="480" y="380" as="targetPoint" />
          </mxGeometry>
        </mxCell>
        <mxCell id="4mEzJPV0xNtc1X_mmVSn-29" value="9: format()" style="text;html=1;align=center;verticalAlign=middle;whiteSpace=wrap;rounded=0;fontSize=11;rotation=-55;" vertex="1" parent="1">
          <mxGeometry x="454" y="305" width="110" height="10" as="geometry" />
        </mxCell>
        <mxCell id="4mEzJPV0xNtc1X_mmVSn-30" value="" style="endArrow=classic;html=1;rounded=0;entryX=0.5;entryY=1;entryDx=0;entryDy=0;" edge="1" parent="1" target="4mEzJPV0xNtc1X_mmVSn-3">
          <mxGeometry width="50" height="50" relative="1" as="geometry">
            <mxPoint x="410" y="380" as="sourcePoint" />
            <mxPoint x="270" y="400" as="targetPoint" />
          </mxGeometry>
        </mxCell>
        <mxCell id="4mEzJPV0xNtc1X_mmVSn-31" value="10: PDF File" style="text;html=1;align=center;verticalAlign=middle;whiteSpace=wrap;rounded=0;fontSize=11;rotation=75;" vertex="1" parent="1">
          <mxGeometry x="350" y="319" width="70" height="10" as="geometry" />
        </mxCell>
        <mxCell id="4mEzJPV0xNtc1X_mmVSn-39" value="" style="endArrow=classic;html=1;rounded=0;exitX=0.5;exitY=0;exitDx=0;exitDy=0;entryX=0.75;entryY=1;entryDx=0;entryDy=0;" edge="1" parent="1" source="4mEzJPV0xNtc1X_mmVSn-7" target="4mEzJPV0xNtc1X_mmVSn-4">
          <mxGeometry width="50" height="50" relative="1" as="geometry">
            <mxPoint x="630" y="280" as="sourcePoint" />
            <mxPoint x="650" y="280" as="targetPoint" />
          </mxGeometry>
        </mxCell>
        <mxCell id="4mEzJPV0xNtc1X_mmVSn-40" value="4: ExpenseData()" style="text;html=1;align=center;verticalAlign=middle;whiteSpace=wrap;rounded=0;fontSize=11;rotation=90;" vertex="1" parent="1">
          <mxGeometry x="594" y="319" width="90" height="10" as="geometry" />
        </mxCell>
      </root>
    </mxGraphModel>
  </diagram>
</mxfile>
